<?xml version="1.0" encoding="UTF-8" standalone="no"?>
<svg
   xmlns:dc="http://purl.org/dc/elements/1.1/"
   xmlns:cc="http://creativecommons.org/ns#"
   xmlns:rdf="http://www.w3.org/1999/02/22-rdf-syntax-ns#"
   xmlns:svg="http://www.w3.org/2000/svg"
   xmlns="http://www.w3.org/2000/svg"
   viewBox="0 0 708 365.33334"
   height="365.33334"
   width="708"
   xml:space="preserve"
   id="svg2"
   version="1.1"><metadata
     id="metadata8"><rdf:RDF><cc:Work
         rdf:about=""><dc:format>image/svg+xml</dc:format><dc:type
           rdf:resource="http://purl.org/dc/dcmitype/StillImage" /></cc:Work></rdf:RDF></metadata><defs
     id="defs6"><clipPath
       id="clipPath20"
       clipPathUnits="userSpaceOnUse"><path
         id="path18"
         d="M 0,0 H 531 V 274 H 0 Z" /></clipPath></defs><g
     transform="matrix(1.3333333,0,0,-1.3333333,0,365.33333)"
     id="g10"><g
       id="g12" /><g
       id="g14"><g
         clip-path="url(#clipPath20)"
         id="g16"><path
           id="path22"
           style="fill:#ffffff;fill-opacity:0;fill-rule:nonzero;stroke:none"
           d="M 0,0 H 531 V 274 H 0 Z" /><path
           id="path24"
           style="fill:#ffffff;fill-opacity:1;fill-rule:evenodd;stroke:none"
           d="m 12.5,104.5 c 0,41.9736 34.47408,76 77,76 42.5259,0 77,-34.0264 77,-76 0,-41.97364 -34.4741,-76 -77,-76 -42.52592,0 -77,34.02636 -77,76 z" /><g
           transform="matrix(7.874016e-5,0,0,-7.874016e-5,12.5,180.5)"
           id="g26"><path
             id="path28"
             style="fill:none;stroke:#ffffff;stroke-width:317500;stroke-linecap:butt;stroke-linejoin:round;stroke-miterlimit:10;stroke-dasharray:none;stroke-opacity:1"
             d="M 0,965200 C 0,432134.8 437820.7,0 977900,0 c 540079,0 977900,432134.8 977900,965200 0,533065 -437821,965200 -977900,965200 C 437820.7,1930400 0,1498265 0,965200 Z" /></g><path
           id="path30"
           style="fill:#ffffff;fill-opacity:1;fill-rule:evenodd;stroke:none"
           d="m 100.5,139 c 0,41.6975 54.3974,75.5 121.5,75.5 67.1026,0 121.5,-33.8025 121.5,-75.5 0,-41.6975 -54.3974,-75.5 -121.5,-75.5 -67.1026,0 -121.5,33.8025 -121.5,75.5 z" /><g
           transform="matrix(7.874016e-5,0,0,-7.874016e-5,100.5,214.5)"
           id="g32"><path
             id="path34"
             style="fill:none;stroke:#ffffff;stroke-width:317500;stroke-linecap:butt;stroke-linejoin:round;stroke-miterlimit:10;stroke-dasharray:none;stroke-opacity:1"
             d="M 0,958850 C 0,429291.8 690847,0 1543050,0 c 852203,0 1543050,429291.8 1543050,958850 0,529558 -690847,958850 -1543050,958850 C 690847,1917700 0,1488408 0,958850 Z" /></g><path
           id="path36"
           style="fill:#ffffff;fill-opacity:1;fill-rule:evenodd;stroke:none"
           d="m 100.5,186 c 0,41.6975 34.6979,75.5 77.5,75.5 42.8021,0 77.5,-33.8025 77.5,-75.5 0,-41.6975 -34.6979,-75.5 -77.5,-75.5 -42.8021,0 -77.5,33.8025 -77.5,75.5 z" /><g
           transform="matrix(7.874016e-5,0,0,-7.874016e-5,100.5,261.5)"
           id="g38"><path
             id="path40"
             style="fill:none;stroke:#ffffff;stroke-width:317500;stroke-linecap:butt;stroke-linejoin:round;stroke-miterlimit:10;stroke-dasharray:none;stroke-opacity:1"
             d="M 0,958850 C 0,429291.8 440663.7,0 984250,0 c 543586,0 984250,429291.8 984250,958850 0,529558 -440664,958850 -984250,958850 C 440663.7,1917700 0,1488408 0,958850 Z" /></g><path
           id="path42"
           style="fill:#ffffff;fill-opacity:1;fill-rule:evenodd;stroke:none"
           d="m 200.5,151 c 0,41.6975 34.4741,75.5 77,75.5 42.5259,0 77,-33.8025 77,-75.5 0,-41.6975 -34.4741,-75.5 -77,-75.5 -42.5259,0 -77,33.8025 -77,75.5 z" /><g
           transform="matrix(7.874016e-5,0,0,-7.874016e-5,200.5,226.5)"
           id="g44"><path
             id="path46"
             style="fill:none;stroke:#ffffff;stroke-width:317500;stroke-linecap:butt;stroke-linejoin:round;stroke-miterlimit:10;stroke-dasharray:none;stroke-opacity:1"
             d="M 0,958850 C 0,429291.8 437820.8,0 977900,0 c 540079,0 977900,429291.8 977900,958850 0,529558 -437821,958850 -977900,958850 C 437820.8,1917700 0,1488408 0,958850 Z" /></g><path
           id="path48"
           style="fill:#ffffff;fill-opacity:1;fill-rule:evenodd;stroke:none"
           d="m 233.5,104.5 c 0,41.9736 41.8614,76 93.5,76 51.6386,0 93.5,-34.0264 93.5,-76 0,-41.97364 -41.8614,-76 -93.5,-76 -51.6386,0 -93.5,34.02636 -93.5,76 z" /><g
           transform="matrix(7.874016e-5,0,0,-7.874016e-5,233.5,180.5)"
           id="g50"><path
             id="path52"
             style="fill:none;stroke:#ffffff;stroke-width:317500;stroke-linecap:butt;stroke-linejoin:round;stroke-miterlimit:10;stroke-dasharray:none;stroke-opacity:1"
             d="M 0,965200 C 0,432134.8 531639.5,0 1187450,0 c 655810,0 1187450,432134.8 1187450,965200 0,533065 -531640,965200 -1187450,965200 C 531639.5,1930400 0,1498265 0,965200 Z" /></g><path
           id="path54"
           style="fill:#ffffff;fill-opacity:1;fill-rule:nonzero;stroke:none"
           d="m 89.5,28.5 h 243 v 82 h -243 z" /><g
           transform="matrix(7.874016e-5,0,0,-7.874016e-5,89.5,110.5)"
           id="g56"><path
             id="path58"
             style="fill:none;stroke:#ffffff;stroke-width:317500;stroke-linecap:butt;stroke-linejoin:round;stroke-miterlimit:10;stroke-dasharray:none;stroke-opacity:1"
             d="M 0,0 H 3086100 V 1041400 H 0 Z" /></g><path
           id="path60"
           style="fill:#ffffff;fill-opacity:1;fill-rule:evenodd;stroke:none"
           d="m 159,87 h 97.5 L 289,50.5 256.5,14 H 159 Z" /><g
           transform="matrix(7.874016e-5,0,0,-7.874016e-5,159,87)"
           id="g62"><path
             id="path64"
             style="fill:none;stroke:#ffffff;stroke-width:355600;stroke-linecap:butt;stroke-linejoin:round;stroke-miterlimit:10;stroke-dasharray:none;stroke-opacity:1"
             d="m 0,0 h 1238250 l 412750,463550 -412750,463550 H 0 Z" /></g><path
           id="path66"
           style="fill:#ffffff;fill-opacity:1;fill-rule:evenodd;stroke:none"
           d="m 273,87 h 97.5 L 403,50.5 370.5,14 H 273 l 32.5,36.5 z" /><g
           transform="matrix(7.874016e-5,0,0,-7.874016e-5,273,87)"
           id="g68"><path
             id="path70"
             style="fill:none;stroke:#ffffff;stroke-width:355600;stroke-linecap:butt;stroke-linejoin:round;stroke-miterlimit:10;stroke-dasharray:none;stroke-opacity:1"
             d="m 0,0 h 1238250 l 412750,463550 -412750,463550 H 0 L 412750,463550 Z" /></g><path
           id="path72"
           style="fill:#ffffff;fill-opacity:1;fill-rule:evenodd;stroke:none"
           d="m 387,87 h 97.5 L 517,50.5 484.5,14 H 387 l 32.5,36.5 z" /><g
           transform="matrix(7.874016e-5,0,0,-7.874016e-5,387,87)"
           id="g74"><path
             id="path76"
             style="fill:none;stroke:#ffffff;stroke-width:355600;stroke-linecap:butt;stroke-linejoin:round;stroke-miterlimit:10;stroke-dasharray:none;stroke-opacity:1"
             d="m 0,0 h 1238250 l 412750,463550 -412750,463550 H 0 L 412750,463550 Z" /></g><path
           id="path78"
           style="fill:#0b3070;fill-opacity:1;fill-rule:evenodd;stroke:none"
           d="m 11.5,106 c 0,41.6975 34.69793,75.5 77.5,75.5 42.8021,0 77.5,-33.8025 77.5,-75.5 C 166.5,64.3025 131.8021,30.5 89,30.5 46.19793,30.5 11.5,64.3025 11.5,106 Z" /><g
           transform="matrix(7.874016e-5,0,0,-7.874016e-5,11.5,181.5)"
           id="g80"><path
             id="path82"
             style="fill:none;stroke:#0b3070;stroke-width:12700;stroke-linecap:butt;stroke-linejoin:round;stroke-miterlimit:10;stroke-dasharray:none;stroke-opacity:1"
             d="M 0,958850 C 0,429291.8 440663.8,0 984250,0 c 543586,0 984250,429291.8 984250,958850 0,529558 -440664,958850 -984250,958850 C 440663.8,1917700 0,1488408 0,958850 Z" /></g><path
           id="path84"
           style="fill:#0b3070;fill-opacity:1;fill-rule:evenodd;stroke:none"
           d="m 99.5,141 c 0,41.6975 54.3974,75.5 121.5,75.5 67.1026,0 121.5,-33.8025 121.5,-75.5 C 342.5,99.3025 288.1026,65.5 221,65.5 153.8974,65.5 99.5,99.3025 99.5,141 Z" /><g
           transform="matrix(7.874016e-5,0,0,-7.874016e-5,99.5,216.5)"
           id="g86"><path
             id="path88"
             style="fill:none;stroke:#0b3070;stroke-width:12700;stroke-linecap:butt;stroke-linejoin:round;stroke-miterlimit:10;stroke-dasharray:none;stroke-opacity:1"
             d="M 0,958850 C 0,429291.8 690847,0 1543050,0 c 852203,0 1543050,429291.8 1543050,958850 0,529558 -690847,958850 -1543050,958850 C 690847,1917700 0,1488408 0,958850 Z" /></g><path
           id="path90"
           style="fill:#0b3070;fill-opacity:1;fill-rule:evenodd;stroke:none"
           d="m 99.5,187 c 0,41.6975 34.6979,75.5 77.5,75.5 42.8021,0 77.5,-33.8025 77.5,-75.5 0,-41.6975 -34.6979,-75.5 -77.5,-75.5 -42.8021,0 -77.5,33.8025 -77.5,75.5 z" /><g
           transform="matrix(7.874016e-5,0,0,-7.874016e-5,99.5,262.5)"
           id="g92"><path
             id="path94"
             style="fill:none;stroke:#0b3070;stroke-width:12700;stroke-linecap:butt;stroke-linejoin:round;stroke-miterlimit:10;stroke-dasharray:none;stroke-opacity:1"
             d="M 0,958850 C 0,429291.8 440663.7,0 984250,0 c 543586,0 984250,429291.8 984250,958850 0,529558 -440664,958850 -984250,958850 C 440663.7,1917700 0,1488408 0,958850 Z" /></g><path
           id="path96"
           style="fill:#0b3070;fill-opacity:1;fill-rule:evenodd;stroke:none"
           d="m 199.5,152 c 0,41.6975 34.4741,75.5 77,75.5 42.5259,0 77,-33.8025 77,-75.5 0,-41.6975 -34.4741,-75.5 -77,-75.5 -42.5259,0 -77,33.8025 -77,75.5 z" /><g
           transform="matrix(7.874016e-5,0,0,-7.874016e-5,199.5,227.5)"
           id="g98"><path
             id="path100"
             style="fill:none;stroke:#0b3070;stroke-width:12700;stroke-linecap:butt;stroke-linejoin:round;stroke-miterlimit:10;stroke-dasharray:none;stroke-opacity:1"
             d="M 0,958850 C 0,429291.8 437820.8,0 977900,0 c 540079,0 977900,429291.8 977900,958850 0,529558 -437821,958850 -977900,958850 C 437820.8,1917700 0,1488408 0,958850 Z" /></g><path
           id="path102"
           style="fill:#0b3070;fill-opacity:1;fill-rule:evenodd;stroke:none"
           d="m 232.5,106 c 0,41.6975 41.8614,75.5 93.5,75.5 51.6386,0 93.5,-33.8025 93.5,-75.5 0,-41.6975 -41.8614,-75.5 -93.5,-75.5 -51.6386,0 -93.5,33.8025 -93.5,75.5 z" /><g
           transform="matrix(7.874016e-5,0,0,-7.874016e-5,232.5,181.5)"
           id="g104"><path
             id="path106"
             style="fill:none;stroke:#0b3070;stroke-width:12700;stroke-linecap:butt;stroke-linejoin:round;stroke-miterlimit:10;stroke-dasharray:none;stroke-opacity:1"
             d="M 0,958850 C 0,429291.8 531639.5,0 1187450,0 c 655810,0 1187450,429291.8 1187450,958850 0,529558 -531640,958850 -1187450,958850 C 531639.5,1917700 0,1488408 0,958850 Z" /></g><path
           id="path108"
           style="fill:#0b3070;fill-opacity:1;fill-rule:nonzero;stroke:none"
           d="m 88.5,30.5 h 243 v 81 h -243 z" /><g
           transform="matrix(7.874016e-5,0,0,-7.874016e-5,88.5,111.5)"
           id="g110"><path
             id="path112"
             style="fill:none;stroke:#0b3070;stroke-width:12700;stroke-linecap:butt;stroke-linejoin:round;stroke-miterlimit:10;stroke-dasharray:none;stroke-opacity:1"
             d="M 0,0 H 3086100 V 1028700 H 0 Z" /></g><path
           id="path114"
           style="fill:#77a000;fill-opacity:1;fill-rule:evenodd;stroke:none"
           d="m 159,87 h 96.75 L 288,50.5 255.75,14 H 159 Z" /><g
           transform="matrix(7.874016e-5,0,0,-7.874016e-5,159,87)"
           id="g116"><path
             id="path118"
             style="fill:none;stroke:#77a000;stroke-width:76200;stroke-linecap:butt;stroke-linejoin:round;stroke-miterlimit:10;stroke-dasharray:none;stroke-opacity:1"
             d="m 0,0 h 1228725 l 409575,463550 -409575,463550 H 0 Z" /></g><path
           id="path120"
           style="fill:#77a000;fill-opacity:1;fill-rule:evenodd;stroke:none"
           d="m 273,87 h 96.75 L 402,50.5 369.75,14 H 273 l 32.25,36.5 z" /><g
           transform="matrix(7.874016e-5,0,0,-7.874016e-5,273,87)"
           id="g122"><path
             id="path124"
             style="fill:none;stroke:#77a000;stroke-width:76200;stroke-linecap:butt;stroke-linejoin:round;stroke-miterlimit:10;stroke-dasharray:none;stroke-opacity:1"
             d="m 0,0 h 1228725 l 409575,463550 -409575,463550 H 0 L 409575,463550 Z" /></g><path
           id="path126"
           style="fill:#77a000;fill-opacity:1;fill-rule:evenodd;stroke:none"
           d="m 386,87 h 97.5 L 516,50.5 483.5,14 H 386 l 32.5,36.5 z" /><g
           transform="matrix(7.874016e-5,0,0,-7.874016e-5,386,87)"
           id="g128"><path
             id="path130"
             style="fill:none;stroke:#77a000;stroke-width:76200;stroke-linecap:butt;stroke-linejoin:round;stroke-miterlimit:10;stroke-dasharray:none;stroke-opacity:1"
             d="m 0,0 h 1238250 l 412750,463550 -412750,463550 H 0 L 412750,463550 Z" /></g></g></g></g></svg>